<?xml version="1.0" standalone="no"?>
<!DOCTYPE svg PUBLIC "-//W3C//DTD SVG 20010904//EN"
 "http://www.w3.org/TR/2001/REC-SVG-20010904/DTD/svg10.dtd">
<svg version="1.0" xmlns="http://www.w3.org/2000/svg"
 width="16.000000pt" height="16.000000pt" viewBox="0 0 16.000000 16.000000"
 preserveAspectRatio="xMidYMid meet">
<metadata>
Created by potrace 1.11, written by Peter Selinger 2001-2013
</metadata>
<g transform="translate(0.000000,16.000000) scale(0.006154,-0.006154)"
fill="#000000" stroke="none">
<path d="M0 1300 l0 -1300 1300 0 1300 0 0 1300 0 1300 -1300 0 -1300 0 0
-1300z m1321 148 c3 -107 -12 -150 -88 -257 -76 -106 -112 -141 -144 -141
l-28 0 52 108 c48 99 52 112 51 178 l0 70 70 41 c39 23 74 41 79 42 4 1 7 -18
8 -41z m259 -30 c0 -63 -27 -132 -85 -215 -81 -116 -117 -152 -149 -153 -19 0
-26 4 -23 13 3 6 26 57 52 112 42 91 45 106 43 165 l-3 64 75 43 c84 47 90 46
90 -29z"/>
</g>
</svg>
