<?xml version="1.0" standalone="no"?>
<!DOCTYPE svg PUBLIC "-//W3C//DTD SVG 20010904//EN"
 "http://www.w3.org/TR/2001/REC-SVG-20010904/DTD/svg10.dtd">
<svg version="1.0" xmlns="http://www.w3.org/2000/svg"
 width="16.000000pt" height="16.000000pt" viewBox="0 0 16.000000 16.000000"
 preserveAspectRatio="xMidYMid meet">
<metadata>
Created by potrace 1.11, written by Peter Selinger 2001-2013
</metadata>
<g transform="translate(0.000000,16.000000) scale(0.003125,-0.003125)"
fill="#000000" stroke="none">
<path d="M0 2560 l0 -2560 2560 0 2560 0 0 2560 0 2560 -2560 0 -2560 0 0
-2560z m2340 543 l0 -86 -38 -32 c-76 -66 -118 -193 -129 -392 l-6 -123 116 0
117 0 0 -270 0 -270 -271 0 -271 0 5 313 c4 269 8 326 27 411 59 272 173 432
367 512 32 13 64 24 71 24 9 0 12 -24 12 -87z m910 3 c0 -81 -1 -85 -29 -108
-87 -69 -137 -212 -143 -413 l-3 -110 118 -3 117 -3 0 -269 0 -270 -277 0
-276 0 6 293 c6 304 18 413 58 543 59 194 181 337 346 403 82 34 83 33 83 -63z"/>
</g>
</svg>
